/* XPM */
static char * bg2_16x_xpm[] = {
"16 16 30 1",
" 	c #6DA200",
".	c #6DA100",
"+	c #71A801",
"@	c #71A701",
"#	c #6FA501",
"$	c #6EA400",
"%	c #6EA300",
"&	c #6B9F00",
"*	c #6CA100",
"=	c #73A902",
"-	c #6CA000",
";	c #70A601",
">	c #6DA300",
",	c #6A9D00",
"'	c #73AA02",
")	c #70A501",
"!	c #74AB02",
"~	c #75AD03",
"{	c #6A9E00",
"]	c #6BA000",
"^	c #76AE03",
"/	c #699C00",
"(	c #72A902",
"_	c #70A701",
":	c #689B00",
"<	c #6B9E00",
"[	c #72A901",
"}	c #6FA500",
"|	c #73AB02",
"1	c #72A801",
" ..+@#$%&**$=+%.",
"-;>.*,*'%)% > -@",
"!+.@+%@$&%~@{&]^",
"* / ~',-&-$;.$..",
"*.(%*> ,> />_@; ",
": +^+ >>++>.  <>",
"*> & $'= ;;#-.+%",
">!!*#%% . {$~[~>",
".%*.}|@{ *& %_.-",
"1|>& >%&%^}@*{_*",
"^$.]-.+%>#; *&%'",
". %'; +''>%%]$]>",
"*/   *.$] +'[' &",
"%;++ ^}@>><_;-% ",
"^%_=-__&@|}@ /+@",
"+. .&+>*.;; &  ;"};
