/* XPM */
static char * coll2_16x_xpm[] = {
"16 16 33 1",
" 	c None",
".	c #8B4E39",
"+	c #B92F2C",
"@	c #9A4937",
"#	c #722518",
"$	c #7F0000",
"%	c #AF150F",
"&	c #F98863",
"*	c #DB4F43",
"=	c #D0312E",
"-	c #D40606",
";	c #890000",
">	c #AF150E",
",	c #FA8A64",
"'	c #FC8062",
")	c #FC2E2C",
"!	c #D60101",
"~	c #970101",
"{	c #B72E2C",
"]	c #8B0101",
"^	c #D71712",
"/	c #FB2A2A",
"(	c #E10101",
"_	c #B80000",
":	c #AF140E",
"<	c #900000",
"[	c #C20000",
"}	c #B70000",
"|	c #8D0000",
"1	c #AD140E",
"2	c #940000",
"3	c #710000",
"4	c #7A0000",
"                ",
"                ",
"                ",
"                ",
"    .           ",
"   +@#$         ",
"  %&*=-; .      ",
"  >,')!~{@#$    ",
"  ]^/(_:&*=-;   ",
"   <[}|1,')!2   ",
"    33 ]^/(_4   ",
"        <[}|    ",
"         33     ",
"                ",
"                ",
"                "};
