/* XPM */
static char *result[] = {
/* columns rows colors chars-per-pixel */
"32 32 16 1 ",
"  c #41360B",
". c #43360B",
"X c #44360B",
"o c #45370B",
"O c #463A0C",
"+ c #473B0C",
"@ c #483A0C",
"# c #604F15",
"$ c #745F1F",
"% c #7D6A32",
"& c #89702A",
"* c #A0853C",
"= c #9D8546",
"- c #AD9653",
"; c #CCB065",
": c None",
/* pixels */
"::::::::::::::::::::::::::::::::",
"::::::::::::::::::::::::::::::::",
"::::::::::::::::::::::::::::::::",
"::::::::::::::::::::::::::::::::",
"::::::::::::::::::::::::::::::::",
"::::::::::::::::::::::::::::::::",
"::::::::::::::::::::::::::::::::",
"::::::::::::####::::::::::::::::",
"::::::::::#$--=&##::::::::::::::",
":::::::::$-;;;-=&$@@::::::::::::",
"::::::::$-;;--=&&$#@@:::::::::::",
":::::::$=;;;-=&&$$##@@@:::::::::",
"::::::$&=;;-==&&$###@@@@##::::::",
":::::$&&&--=&&&$#@@##@@$###:::::",
"::::$==&$&&$$$$###@@@%&&$###::::",
":::$---=&$$$$#$$###&=%%&&$###:::",
":::$-;;-==$$#####$&===%&&$$#@:::",
"::$-;;;;--=$$%##%==-==%%&&$@@:::",
"::$-;;;;;;--==%#%=---==%%%#@@@::",
":$&-;;;;;-;--==%#%=-=-=%%###@@::",
":$&*-;;;;;-;---=%%=--==%##@#@@::",
":$&*--;;;;;---==%%%===%#$#@#@@::",
":#$*---;;;-==%%%&%%%%%$$$#@#@@::",
"::#&-*--*&%%%%#$&$####$$$@@@@X::",
":::#&*-**&&&&$#$&##@#@#$#@@ ::::",
"::::#$**&&&&$$#$&##@#@##@@::::::",
":::::##$$$$$$$#$&#@@@@@@@:::::::",
"::::::+###$$$###$#@@@@ :::::::::",
"::::::::::o#######@@.:::::::::::",
":::::::::::::::OOO::::::::::::::",
"::::::::::::::::::::::::::::::::",
"::::::::::::::::::::::::::::::::"
};
