/* XPM */
static char * ex1_16x_xpm[] = {
"16 16 101 2",
"  	c None",
". 	c #9E8747",
"+ 	c #B89F59",
"@ 	c #9B8343",
"# 	c #725E20",
"$ 	c #4D3E0E",
"% 	c #A78F4D",
"& 	c #C9AE63",
"* 	c #AB9351",
"= 	c #907735",
"- 	c #796322",
"; 	c #5B4A13",
"> 	c #493B0C",
", 	c #856D29",
"' 	c #A9904C",
") 	c #B19854",
"! 	c #937B3A",
"~ 	c #836B28",
"{ 	c #625117",
"] 	c #5A4A13",
"^ 	c #504110",
"/ 	c #584814",
"( 	c #614F15",
"_ 	c #9D8747",
": 	c #9D8544",
"< 	c #836B29",
"[ 	c #7C6625",
"} 	c #705C1D",
"| 	c #6F5B1D",
"1 	c #604F15",
"2 	c #66531C",
"3 	c #7C6932",
"4 	c #846D2C",
"5 	c #756020",
"6 	c #615015",
"7 	c #8E783A",
"8 	c #C3A860",
"9 	c #A68E4D",
"0 	c #836D2F",
"a 	c #6F5D23",
"b 	c #635218",
"c 	c #7E692F",
"d 	c #9B8443",
"e 	c #9C8446",
"f 	c #826D31",
"g 	c #655319",
"h 	c #4A3C0D",
"i 	c #9A8342",
"j 	c #CAAF64",
"k 	c #CCB065",
"l 	c #C4A961",
"m 	c #B49C57",
"n 	c #A08949",
"o 	c #816D34",
"p 	c #826E34",
"q 	c #A8914F",
"r 	c #A58D4D",
"s 	c #8E783D",
"t 	c #76632B",
"u 	c #5B4B14",
"v 	c #957C35",
"w 	c #B69D58",
"x 	c #CBAF64",
"y 	c #BCA35C",
"z 	c #AC9552",
"A 	c #9E8748",
"B 	c #7F6C33",
"C 	c #998345",
"D 	c #A08849",
"E 	c #816D33",
"F 	c #665419",
"G 	c #554611",
"H 	c #A9914D",
"I 	c #B59D57",
"J 	c #B39851",
"K 	c #968042",
"L 	c #877338",
"M 	c #77642A",
"N 	c #80692A",
"O 	c #715E27",
"P 	c #715F27",
"Q 	c #735F20",
"R 	c #4F400F",
"S 	c #483A0C",
"T 	c #846E2C",
"U 	c #A18741",
"V 	c #8F762F",
"W 	c #876F2A",
"X 	c #796323",
"Y 	c #6C591C",
"Z 	c #766121",
"` 	c #564611",
" .	c #554511",
"..	c #645217",
"+.	c #514210",
"@.	c #45380C",
"#.	c #6D591C",
"$.	c #745F1F",
"%.	c #6F5B1C",
"&.	c #675419",
"*.	c #594913",
"                                ",
"                                ",
"                                ",
"                                ",
"          . + @ # $             ",
"        % & * = - ; >           ",
"      , ' ) ! ~ { ] ^ / (       ",
"    _ : < [ } | 1 2 3 4 5 6     ",
"  7 8 8 9 0 a b c d e f ~ g h   ",
"  i j k l m n o p q r s t u >   ",
"5 v w x x y z A B C D E F G >   ",
"  4 H I J K L M N O P Q g R S   ",
"    T U V W X Y Z `  ...+.@.    ",
"      g #.$.%.&.| h S S         ",
"            6 *.G >             ",
"                                "};
