/* XPM */
static char * sd_16x_xpm[] = {
"16 16 123 2",
"  	c None",
". 	c #574B4A",
"+ 	c #655957",
"@ 	c #554847",
"# 	c #534948",
"$ 	c #5C4F4E",
"% 	c #5A4E4D",
"& 	c #645856",
"* 	c #675857",
"= 	c #766866",
"- 	c #5D504F",
"; 	c #766967",
"> 	c #9A8D89",
", 	c #877A77",
"' 	c #867976",
") 	c #918481",
"! 	c #8C7F7C",
"~ 	c #665A58",
"{ 	c #6A5D5B",
"] 	c #716261",
"^ 	c #5A4D4C",
"/ 	c #605251",
"( 	c #7E716E",
"_ 	c #938682",
": 	c #AC9F9B",
"< 	c #9C8F8C",
"[ 	c #9C8F8B",
"} 	c #A59894",
"| 	c #6C5F5D",
"1 	c #554948",
"2 	c #4A403F",
"3 	c #726563",
"4 	c #817371",
"5 	c #897C79",
"6 	c #887B78",
"7 	c #817471",
"8 	c #847774",
"9 	c #6F615F",
"0 	c #796C69",
"a 	c #7A6C6A",
"b 	c #857875",
"c 	c #726462",
"d 	c #5B4E4D",
"e 	c #86624C",
"f 	c #7B6762",
"g 	c #B79479",
"h 	c #C1A988",
"i 	c #C7AF8D",
"j 	c #C4AC8B",
"k 	c #BC9F80",
"l 	c #A08472",
"m 	c #8A6756",
"n 	c #5A4A41",
"o 	c #906748",
"p 	c #99705B",
"q 	c #B19C89",
"r 	c #938B80",
"s 	c #FCDFAF",
"t 	c #FFE1AF",
"u 	c #D9C5A7",
"v 	c #90887E",
"w 	c #B58969",
"x 	c #8E6855",
"y 	c #74573E",
"z 	c #CBAD9B",
"A 	c #9A7865",
"B 	c #FCDEAD",
"C 	c #D5B893",
"D 	c #C1A696",
"E 	c #966F53",
"F 	c #454442",
"G 	c #88644A",
"H 	c #D6A981",
"I 	c #F2CD9F",
"J 	c #F3CE9F",
"K 	c #EBC296",
"L 	c #B78966",
"M 	c #554A40",
"N 	c #737070",
"O 	c #616061",
"P 	c #684D4D",
"Q 	c #786860",
"R 	c #64594B",
"S 	c #594E3C",
"T 	c #7E7169",
"U 	c #66423B",
"V 	c #696767",
"W 	c #5B5B5B",
"X 	c #8A6951",
"Y 	c #6B6869",
"Z 	c #544F4F",
"` 	c #9A4B50",
" .	c #9E7A7D",
"..	c #5F5354",
"+.	c #BB787D",
"@.	c #735355",
"#.	c #908E8D",
"$.	c #B8B7B6",
"%.	c #434343",
"&.	c #545151",
"*.	c #7E4044",
"=.	c #C63648",
"-.	c #614F50",
";.	c #4D4D4C",
">.	c #BDA681",
",.	c #DBBE97",
"'.	c #505050",
").	c #717171",
"!.	c #6B6969",
"~.	c #A46A6F",
"{.	c #625A5A",
"].	c #5A5A59",
"^.	c #87654B",
"/.	c #A2805C",
"(.	c #795C48",
"_.	c #AB8771",
":.	c #8B7167",
"<.	c #646464",
"[.	c #5C5B5C",
"}.	c #676566",
"|.	c #575352",
"1.	c #BFBDBC",
"2.	c #868383",
"                                ",
"    . + @   # $ $ %     $ &     ",
"    * = - ; > , ' ) ! ~ { ] ^   ",
"    / - ( _ : < [ } } , | / 1   ",
"    2 3 4 ' 5 5 5 5 6 7 8 1     ",
"    2 9 0 a 8 a b a a 8 c d     ",
"      e f g h i i j k l m n     ",
"      o p q r s t u v w x       ",
"        y z A B t C D E         ",
"        F G H I J K L M         ",
"      N O P Q R S T U V W       ",
"      X Y Z `  ...+.@.#.$.      ",
"          %.&.*.=.-.;.>.,.S     ",
"          '.).!.~.{.].^./.      ",
"          (._.:.<.[.}.          ",
"          |.1.2.                "};
