/* XPM */
static char *result[] = {
/* columns rows colors chars-per-pixel */
"32 32 25 1 ",
"  c #2E1E22",
". c #3A3A3A",
"X c #473D3C",
"o c #534721",
"O c #505050",
"+ c #685958",
"@ c gray38",
"# c gray49",
"$ c #971E2A",
"% c #964F00",
"& c #CB3044",
"* c #9D704C",
"= c #877A77",
"- c #FF4460",
"; c #D7906E",
": c #928A8C",
"> c #B0A39F",
", c #B1ADAF",
"< c #EEBE93",
"1 c #FFE1AF",
"2 c gray85",
"3 c #D9D9DD",
"4 c #DFDDDF",
"5 c white",
"6 c None",
/* pixels */
"66666666666666666666666666666666",
"66666666666666666666666666666666",
"66666666666666XXXXX6XXXXX6666666",
"66666666666XXX+++++X+===+X666666",
"666666666XX+=>====X+====>+X66666",
"66666666X+==>=====X==>>>=+X66666",
"6666666X+==>>=====X+====++X66666",
"666666X+====>>====X+++++++X66666",
"666666X======>>>>>>X+++++XX66666",
"66666X+=+===========XXXXX=+X6666",
"66666X+=+==+==+==+========+X6666",
"66666X+++==+==+===+=+=====+X6666",
"666666X+++++++++==++++====+X6666",
"6666666Xo<<11111+=+oo++==++X6666",
"66666666o<11ooo11++<1o+=++X66666",
"66666666o<113 2o11+*1o++++X66666",
"66666666o;11: 5o11+*<o+++X666666",
"66666666o*<1%%1111+;o+++X6666666",
"666666666o;<11111<;;X++X66666666",
"6666666666o*;;<<<;;**XX666666666",
"66666666666ooooooo...66666666666",
"66666666666.O@,,OO@@O.6666666666",
"6666666666.@,4O&$@##@O.666666666",
"6666666666.O&&$@#O@##@.666666666",
"6666666666&$O@@##@.@#4,o66666666",
"666666666-&.........4#1;o6666666",
"666666666-6.@OO@@@O.@11;o6666666",
"6666666666.@O@####@Oo;;o66666666",
"66666666666.@#####@OOoo666666666",
"6666666666.#..........6666666666",
"6666666666.@#@O.66...66666666666",
"66666666666....66666666666666666"
};
