/* XPM */
static char * sl_16x_xpm[] = {
"16 16 104 2",
"  	c None",
". 	c #534948",
"+ 	c #5C4F4E",
"@ 	c #554948",
"# 	c #655958",
"$ 	c #6E6260",
"% 	c #5A4E4D",
"& 	c #584C4B",
"* 	c #766967",
"= 	c #998C89",
"- 	c #877A77",
"; 	c #847774",
"> 	c #665A59",
", 	c #918481",
"' 	c #9B8F8B",
") 	c #837673",
"! 	c #7E716F",
"~ 	c #938682",
"{ 	c #A59894",
"] 	c #8A7D7A",
"^ 	c #615453",
"/ 	c #796C69",
"( 	c #7A6D6B",
"_ 	c #685958",
": 	c #4A403F",
"< 	c #726563",
"[ 	c #817371",
"} 	c #938683",
"| 	c #9B8E8B",
"1 	c #867A77",
"2 	c #5D514F",
"3 	c #5C504F",
"4 	c #655957",
"5 	c #564A49",
"6 	c #6F615F",
"7 	c #796B69",
"8 	c #7A6C6A",
"9 	c #7F726F",
"0 	c #7E716E",
"a 	c #857875",
"b 	c #564948",
"c 	c #967B64",
"d 	c #C2A485",
"e 	c #C2AA89",
"f 	c #877872",
"g 	c #6B5C54",
"h 	c #6B5C53",
"i 	c #807270",
"j 	c #5B4E4D",
"k 	c #BA9670",
"l 	c #FBDDAD",
"m 	c #938B80",
"n 	c #BBAC94",
"o 	c #DEC49B",
"p 	c #A7866C",
"q 	c #BDA57D",
"r 	c #4C4140",
"s 	c #9B7250",
"t 	c #F5D2A3",
"u 	c #9B7B67",
"v 	c #E1CEB1",
"w 	c #F9DBAA",
"x 	c #A37A62",
"y 	c #94785C",
"z 	c #675856",
"A 	c #BC8E6A",
"B 	c #E5B88E",
"C 	c #F2CD9F",
"D 	c #E9BC91",
"E 	c #C58666",
"F 	c #6F5649",
"G 	c #504736",
"H 	c #695F53",
"I 	c #90857D",
"J 	c #635548",
"K 	c #5A5552",
"L 	c #494645",
"M 	c #5B4D4E",
"N 	c #BF8D91",
"O 	c #93565A",
"P 	c #765C5D",
"Q 	c #737373",
"R 	c #696969",
"S 	c #494847",
"T 	c #A3323E",
"U 	c #584A4B",
"V 	c #5C595A",
"W 	c #5A5A5A",
"X 	c #515151",
"Y 	c #B4B1B0",
"Z 	c #C2A58B",
"` 	c #5C494B",
" .	c #595959",
"..	c #6B6B6B",
"+.	c #6E6E6E",
"@.	c #525252",
"#.	c #B49577",
"$.	c #CC9F79",
"%.	c #575757",
"&.	c #5C5C5C",
"*.	c #636363",
"=.	c #4C4C4C",
"-.	c #4E463D",
";.	c #424242",
"                                ",
"            . + + @ # $ %       ",
"        & * = - ; > , ' )       ",
"      & ! ~ { ] - ^ / ( _ :     ",
"      < [ - } | | 1 2 3 4 5     ",
"      6 7 8 ; 8 [ 9 0 a a +     ",
"      b c d e e f g h i 9 j     ",
"        k l m n o p q 6 _ r     ",
"        s t u v w x y z 5       ",
"          A B C D E F @         ",
"          G H I J K L           ",
"          M N O P Q R S         ",
"          T U V W X Y Z         ",
"          `  ...+.@.#.$.        ",
"          %.&.*.*.=.-.          ",
"          =.%.;.                "};
