/* XPM */
static char * sr_16x_xpm[] = {
"16 16 104 2",
"  	c None",
". 	c #675B59",
"+ 	c #6E6260",
"@ 	c #584C4B",
"# 	c #5A4D4C",
"$ 	c #5C4F4E",
"% 	c #5A4E4D",
"& 	c #5D514F",
"* 	c #998C89",
"= 	c #9B8E8A",
"- 	c #7E716F",
"; 	c #6E6360",
"> 	c #867976",
", 	c #908480",
"' 	c #8C7F7C",
") 	c #665A58",
"! 	c #594D4C",
"~ 	c #736563",
"{ 	c #7B6D6B",
"] 	c #706261",
"^ 	c #726664",
"/ 	c #897C79",
"( 	c #948884",
"_ 	c #A49793",
": 	c #877A77",
"< 	c #6C5F5D",
"[ 	c #635756",
"} 	c #5C504F",
"| 	c #685C5A",
"1 	c #9B8F8B",
"2 	c #9B8E8B",
"3 	c #887B78",
"4 	c #7F716F",
"5 	c #584C4A",
"6 	c #4A403F",
"7 	c #786A68",
"8 	c #857875",
"9 	c #847774",
"0 	c #7A6C6A",
"a 	c #716362",
"b 	c #5B4E4D",
"c 	c #706260",
"d 	c #726461",
"e 	c #6C5C4D",
"f 	c #A9957F",
"g 	c #C1AA89",
"h 	c #C4AB8A",
"i 	c #BA977B",
"j 	c #63534B",
"k 	c #716261",
"l 	c #6D5E4E",
"m 	c #DBB88E",
"n 	c #A89279",
"o 	c #DEC499",
"p 	c #928B80",
"q 	c #D9C5A6",
"r 	c #F2CC9E",
"s 	c #6B5837",
"t 	c #615352",
"u 	c #695950",
"v 	c #B58866",
"w 	c #CAAF8C",
"x 	c #E6CB9F",
"y 	c #C8B4A0",
"z 	c #D4B692",
"A 	c #DAAE85",
"B 	c #5B4D4B",
"C 	c #9F6F53",
"D 	c #D89D79",
"E 	c #ECC397",
"F 	c #D7AB82",
"G 	c #996F4E",
"H 	c #534F4D",
"I 	c #5D544C",
"J 	c #7F7168",
"K 	c #80776F",
"L 	c #5A5041",
"M 	c #575757",
"N 	c #747474",
"O 	c #676565",
"P 	c #925A5D",
"Q 	c #AC7D81",
"R 	c #956E71",
"S 	c #987052",
"T 	c #C8BBAD",
"U 	c #8D8C8C",
"V 	c #4A4A4A",
"W 	c #626262",
"X 	c #585050",
"Y 	c #6A3D40",
"Z 	c #D8384D",
"` 	c #E1B68D",
" .	c #635C54",
"..	c #646464",
"+.	c #6F6F6F",
"@.	c #545454",
"#.	c #BC4050",
"$.	c #5B4A33",
"%.	c #474645",
"&.	c #5A5A5A",
"*.	c #636363",
"=.	c #5B5B5B",
"-.	c #4B4B4B",
";.	c #585858",
"                                ",
"        . + @ # $ %             ",
"      & * = - ; > , ' )         ",
"      ! ~ { ] ^ / ( _ : <       ",
"      [ & } | * 1 2 3 > 4 5     ",
"    6 7 8 9 - { 8 0 0 9 a b     ",
"      c 8 d e 7 f g h i j       ",
"      # k l m n o p q r s       ",
"        t u v w x y z A         ",
"          B C D r E F G         ",
"            H I J K L           ",
"          M N O P Q R           ",
"        S T U V W X Y Z         ",
"        G `  ...+.W @.#.        ",
"          $.%.&.*.W =.          ",
"                  -.;.          "};
