/* XPM */
static char *result[] = {
/* columns rows colors chars-per-pixel */
"32 32 17 1 ",
"  c #3A3A3A",
". c #473D3C",
"X c #534721",
"o c #505050",
"O c #685958",
"+ c gray38",
"@ c gray49",
"# c #9D704C",
"$ c #877A77",
"% c #D7906E",
"& c #B0A39F",
"* c #B1ADAF",
"= c #EEBE93",
"- c #FFE1AF",
"; c #DFDDDF",
": c white",
"> c None",
/* pixels */
">>>>>>>>>>>>>>>>>>>>>>>>>>>>>>>>",
">>>>>>>>>>>>>>>>>>>>>>>>>>>>>>>>",
">>>>>....>>>>>.....>>>>>....>>>>",
">>>>.O$$O.>...OOOOO...>.O$$O.>>>",
">>>.O$&$$O.O$&$$$$$&$O.O$$&$O.>>",
">>>.$$&&$O.$&$$$$$$$&$.O$&&$$.>>",
">>>.O$$$OO.&&$$$$$$$&&.OO$$$O.>>",
">>>.OOOOOO.&&&$$$$$&&&.OOOOOO.>>",
">>>>.OOOO.$$&&&&&&&&&$$.OOOO.>>>",
">>>>>....$$$$&&&&&&&$$$$....>>>>",
">>>>>.OOO$$$$$$$$$$$$$$$OOO.>>>>",
">>>>>.OOO$$$$$$$$$$$$$$$OOO.>>>>",
">>>>>.OXO$O$$$$$$$$$$$O$OXO.>>>>",
">>>>>.X%OOO$$$$$$$$$$$OOO%X.>>>>",
">>>>>>X%OOOO$$$$O$$$$OOOO%X>>>>>",
">>>>>>>X.OOOO$$OOO$$OOOO.X>>>>>>",
">>>>>>>>.OOOOOOOOOOOOOOO.>>>>>>>",
">>>>>>>>>..OOOOOOOOOOO..>>>>>>>>",
">>>>>>>>>  ..OOOOOOO..  >>>>>>>>",
">>>>>>>> ++ *.......*  + >>>>>>>",
">>>>>>> +@+o;@@@@@@@;o +o >>>>>>",
">>>>>> +@@oo;:::::::;o oo >>>>>>",
">>>>> ;:@+ o+@@@@@@@+o **o >>>>>",
">>>>X%-@:o   ooooooo   oo#X>>>>>",
">>>>X=--+  o+@@@@@@@+o ##X>>>>>>",
">>>>X%== >             XX>>>>>>>",
">>>>>XXX> oo++o+@+o++oo >>>>>>>>",
">>>>>>>>>> ++o+@@+o@@+ >>>>>>>>>",
">>>>>>>>>>>  ++@@@+   >>>>>>>>>>",
">>>>>>>>>>> *      =%X>>>>>>>>>>",
">>>>>>>>>>>>   >> ::; >>>>>>>>>>",
">>>>>>>>>>>>>>>>> +@@ >>>>>>>>>>"
};
