/* XPM */
static char * su_16x_xpm[] = {
"16 16 112 2",
"  	c None",
". 	c #584C4B",
"+ 	c #6E6360",
"@ 	c #534948",
"# 	c #5C4F4E",
"$ 	c #5A4E4D",
"% 	c #665A58",
"& 	c #675B59",
"* 	c #7F7270",
"= 	c #A29592",
"- 	c #776A68",
"; 	c #685C5A",
"> 	c #998C89",
", 	c #877A77",
"' 	c #867976",
") 	c #908480",
"! 	c #8B7E7B",
"~ 	c #5D504F",
"{ 	c #918481",
"] 	c #9A8D89",
"^ 	c #655957",
"/ 	c #706260",
"( 	c #7A6D6A",
"_ 	c #685958",
": 	c #887D7A",
"< 	c #A69995",
"[ 	c #8A7D7A",
"} 	c #897C79",
"| 	c #948884",
"1 	c #AB9E9A",
"2 	c #605452",
"3 	c #736563",
"4 	c #796C69",
"5 	c #554948",
"6 	c #5B4E4D",
"7 	c #A59895",
"8 	c #ADA09C",
"9 	c #948784",
"0 	c #7A6D6B",
"a 	c #5A4D4C",
"b 	c #4A403F",
"c 	c #655755",
"d 	c #786B68",
"e 	c #867977",
"f 	c #887B78",
"g 	c #857875",
"h 	c #594C4B",
"i 	c #86624C",
"j 	c #736360",
"k 	c #796C6A",
"l 	c #726462",
"m 	c #8A6756",
"n 	c #5A4A41",
"o 	c #906647",
"p 	c #655552",
"q 	c #695B59",
"r 	c #7F726F",
"s 	c #86624F",
"t 	c #544847",
"u 	c #605252",
"v 	c #695A59",
"w 	c #665857",
"x 	c #594D4C",
"y 	c #4D4C4C",
"z 	c #4F4C4C",
"A 	c #756E6E",
"B 	c #5C504F",
"C 	c #5F5352",
"D 	c #6E6969",
"E 	c #464646",
"F 	c #606060",
"G 	c #737373",
"H 	c #616061",
"I 	c #CCCBCC",
"J 	c #C6C6C6",
"K 	c #C7C6C7",
"L 	c #A6A5A6",
"M 	c #504F4F",
"N 	c #4B4B4B",
"O 	c #98735B",
"P 	c #DACFC3",
"Q 	c #9C9C9C",
"R 	c #444444",
"S 	c #6A6A6A",
"T 	c #767676",
"U 	c #757575",
"V 	c #545454",
"W 	c #6C6969",
"X 	c #81746E",
"Y 	c #B18764",
"Z 	c #ECC89B",
"` 	c #66605B",
" .	c #414141",
"..	c #595959",
"+.	c #626262",
"@.	c #616161",
"#.	c #4C4C4C",
"$.	c #624E3C",
"%.	c #745836",
"&.	c #4F4F4F",
"*.	c #5B5B5B",
"=.	c #656565",
"-.	c #6E6E6E",
";.	c #444443",
">.	c #464545",
",.	c #6B696A",
"'.	c #636363",
").	c #927E6F",
"!.	c #836453",
"~.	c #505050",
"{.	c #C1C0BF",
"].	c #8E8B8B",
"                                ",
"    . + .   @ # # $     % &     ",
"    * = - ; > , ' ) ! ~ { ] ^   ",
"    / ( _ : < [ } | 1 2 3 4 #   ",
"    5 6 % , 7 8 8 8 9 0 # a     ",
"    b c d e f } } } , g _ h     ",
"      i j k , , e , g l m n     ",
"      o p q r r 3 g l _ s       ",
"        t u _ v _ q w x         ",
"        y z A B B C D E         ",
"      F G H I J J K L M N       ",
"    O P Q R S T T U V W X       ",
"    Y Z `  ...+.+.@.#.$.%.      ",
"          &.*.=.-.F +.;.        ",
"          >.,.*.'.).!.          ",
"                ~.{.].          "};
