/* XPM */
static char * wall1_16x_xpm[] = {
"16 16 147 2",
"  	c None",
". 	c #769E0B",
"+ 	c #8BB21A",
"@ 	c #789F0F",
"# 	c #6E9220",
"$ 	c #567130",
"% 	c #485C38",
"& 	c #729A08",
"* 	c #8DB421",
"= 	c #A9CF34",
"- 	c #B0D73A",
"; 	c #9CC32A",
"> 	c #A8CF33",
", 	c #98BF29",
"' 	c #769C16",
") 	c #546F32",
"! 	c #485B3A",
"~ 	c #89AF1F",
"{ 	c #9AC128",
"] 	c #A1C82D",
"^ 	c #ADD437",
"/ 	c #AED538",
"( 	c #A5CB30",
"_ 	c #A6CD31",
": 	c #9FC62A",
"< 	c #89B117",
"[ 	c #8DB41C",
"} 	c #739723",
"| 	c #536F2C",
"1 	c #94BA26",
"2 	c #A4CA2E",
"3 	c #A5CC30",
"4 	c #B1D83B",
"5 	c #A3CA2E",
"6 	c #8AB118",
"7 	c #9CC327",
"8 	c #A9D034",
"9 	c #92B922",
"0 	c #546E32",
"a 	c #749C07",
"b 	c #94BB22",
"c 	c #95BC22",
"d 	c #ADD438",
"e 	c #A1C82B",
"f 	c #93BA20",
"g 	c #A6CD30",
"h 	c #ABD235",
"i 	c #678B20",
"j 	c #42523B",
"k 	c #84AA19",
"l 	c #ACD336",
"m 	c #ACD337",
"n 	c #94BB21",
"o 	c #A7CE31",
"p 	c #A2C92E",
"q 	c #8AB218",
"r 	c #98BF26",
"s 	c #92B920",
"t 	c #678B1C",
"u 	c #4B6232",
"v 	c #88AE1D",
"w 	c #9DC428",
"x 	c #A7CD32",
"y 	c #8BB219",
"z 	c #8EB51D",
"A 	c #A6CC31",
"B 	c #A0C72B",
"C 	c #90B71C",
"D 	c #769F07",
"E 	c #678D0F",
"F 	c #43543A",
"G 	c #678B1E",
"H 	c #8DB41B",
"I 	c #8FB61C",
"J 	c #A7CE32",
"K 	c #9FC52A",
"L 	c #8DB51C",
"M 	c #85AD14",
"N 	c #678B1B",
"O 	c #57752C",
"P 	c #5F821E",
"Q 	c #6B9208",
"R 	c #779F08",
"S 	c #98BE23",
"T 	c #A0C62A",
"U 	c #9DC328",
"V 	c #A4CB2F",
"W 	c #AAD134",
"X 	c #9EC52A",
"Y 	c #81A910",
"Z 	c #698F0C",
"` 	c #4C613A",
" .	c #44543C",
"..	c #47593B",
"+.	c #688D1E",
"@.	c #709805",
"#.	c #85AC13",
"$.	c #83AB12",
"%.	c #749820",
"&.	c #5B7A28",
"*.	c #4F6834",
"=.	c #516B33",
"-.	c #688E0D",
";.	c #6F9705",
">.	c #87AF15",
",.	c #9EC529",
"'.	c #97BD22",
").	c #88B016",
"!.	c #88AF16",
"~.	c #7EA510",
"{.	c #749D07",
"].	c #60821E",
"^.	c #5E7F21",
"/.	c #45573B",
"(.	c #41503C",
"_.	c #5E8020",
":.	c #5C7C28",
"<.	c #739C0C",
"[.	c #7DA510",
"}.	c #80A80F",
"|.	c #7AA210",
"1.	c #668A1C",
"2.	c #698F0A",
"3.	c #5F821F",
"4.	c #557033",
"5.	c #536E34",
"6.	c #404E3C",
"7.	c #4F663A",
"8.	c #4F6835",
"9.	c #64881E",
"0.	c #648A0D",
"a.	c #5B7A29",
"b.	c #59782B",
"c.	c #546F33",
"d.	c #4A5F3B",
"e.	c #495D3B",
"f.	c #3F4D3C",
"g.	c #3F4D3B",
"h.	c #44553C",
"i.	c #4A5E3B",
"j.	c #4E643B",
"k.	c #45563C",
"l.	c #3E4C3B",
"m.	c #38423A",
"n.	c #3A453C",
"o.	c #3B463C",
"p.	c #39433C",
"          . + @ # $ %           ",
"      & * = - ; > , ' ) !       ",
"    ~ { ] ^ / ( _ : < [ } |     ",
"    1 - 2 3 4 - 5 6 7 8 9 0     ",
"  a b 5 c - / d e f g h 3 i j   ",
"  k l m n 5 o p f q r g s t u   ",
"  v o 2 w x 5 y z A B C D E F   ",
"  G H I > h J K 5 ^ 5 L M N O   ",
"  P Q R S T U n : V W X Y Z `  .",
"..+.@.#.Y < f $.s _ _ S %.&.*.  ",
"  =.-.t ;.>.,.'.).!.~.{.].^./.  ",
"  (.=._.:.<.[.}.|.1.2.3.4.5.6.  ",
"    6.7.8.4.9.0.a.b.c.d.e.6.    ",
"      f.g.h.i.j.k.e./.l.m.      ",
"            n.o.p.o.            ",
"                                "};
