/* XPM */
static char *result[] = {
/* columns rows colors chars-per-pixel */
"32 32 14 1 ",
"  c #343D35",
". c #343D36",
"X c #353C37",
"o c #343F38",
"O c #39433B",
"+ c #39433C",
"@ c #39433D",
"# c #4E643C",
"$ c #648A04",
"% c #78A205",
"& c #95BB1F",
"* c #A4CB2E",
"= c #B1D83B",
"- c None",
/* pixels */
"-----------$-%$$$#-+------------",
"---------$%%&&%&%%#$#++---------",
"--------$%&===*%=*&%$$#+--------",
"------$%&======&*==*&%#$#+------",
"-----$%&&*=====*==**%&%&$#+-----",
"-----**==&*==**&&**&%&&&&%$-----",
"----$&===*&*====*&%&&***&%#+----",
"---$&===*&*======*&%&*==*&$#+---",
"---%&*=*&&======**&%**=*=*$#+---",
"--$%%&*&%*===*=**&*&*=*=**%$#+--",
"--$&*==*&&*=*=*=&*&%&==**&%$+---",
"-#%&====*%&****&%&&%%&**&%$#$+--",
"--$*=*=**&*&*&%&%%&***&%%$%$#++-",
"-#%&***&&*===*&%&*==*&&&%%$$++--",
"-#$%&&&&*==*=*=&&====**&&%$#$#+-",
"--#$%&&%*=*=***&**=**&%%%&%$$#+-",
"-#$#$%$%&****&*%**&*=**&%%%$#+#-",
"-#$$$$%%&&&*&*&&*&*=*=**&%$$##+-",
"-#$%$%&%%&%&*%&%&**==**&&$$#$#+-",
"-+#%%$%&%%&%&&%%%&****&&%##$#++-",
"-+#$$%$%$%%&***&&%&&&%%$$$$$#+--",
"--+#$$#$%$%&&*&&%&%%$%%%$#$#+#+-",
"---+#$$#$$%%&%&%&%$%%$$$##$##+--",
"--+#+#$$##$%%$%%%$#$$$$##$##++--",
"---++###$##$$%$$$$$########++---",
"----++###+###$$$###$$#+##+++----",
"-----O+#+#+#######+####++.+-----",
"------@+o+#++###++##+++ +-------",
"----------+X++++++++ +----------",
"--------------------------------",
"--------------------------------",
"--------------------------------"
};
